<svg data-v-fde0c5aa="" xmlns="http://www.w3.org/2000/svg" viewBox="0 0 300 300" class="iconAbove"><!----><defs data-v-fde0c5aa=""><linearGradient data-v-fde0c5aa="" gradientTransform="rotate(25)" id="d8018afc-7634-4d29-87f5-8c6633b9e114" x1="0%" y1="0%" x2="100%" y2="0%"><stop data-v-fde0c5aa="" offset="0%" stop-color="#000A68" stop-opacity="1"></stop><stop data-v-fde0c5aa="" offset="100%" stop-color="#00C4EE" stop-opacity="1"></stop></linearGradient></defs><rect data-v-fde0c5aa="" fill="url(#d8018afc-7634-4d29-87f5-8c6633b9e114)" x="0" y="0" width="300px" height="300px" class="logo-background-square"></rect><defs data-v-fde0c5aa=""><!----></defs><g data-v-fde0c5aa="" id="8f117e82-266a-47c2-a16c-e946d3a8d03f" fill="#ffffff" transform="matrix(1.9062981242284043,0,0,1.9062981242284043,17.502749566340043,158.30420071197986)"><path d="M8.96 16.19L2.63 6.56L2.63 16.19L1.31 16.19L1.31 5.69L3.50 5.69L9.62 14.88L15.74 5.69L17.83 5.69L17.83 16.19L16.52 16.19L16.52 6.71L10.28 16.19L8.96 16.19ZM19.80 12.20L19.80 12.20L19.80 12.20Q19.80 10.99 20.06 10.19L20.06 10.19L20.06 10.19Q20.32 9.40 20.89 8.93L20.89 8.93L20.89 8.93Q21.46 8.47 22.38 8.28L22.38 8.28L22.38 8.28Q23.30 8.09 24.61 8.09L24.61 8.09L24.61 8.09Q25.92 8.09 26.84 8.28L26.84 8.28L26.84 8.28Q27.75 8.47 28.33 8.93L28.33 8.93L28.33 8.93Q28.90 9.40 29.16 10.19L29.16 10.19L29.16 10.19Q29.42 10.99 29.42 12.20L29.42 12.20L29.42 12.20Q29.42 13.41 29.16 14.21L29.16 14.21L29.16 14.21Q28.90 15.00 28.33 15.48L28.33 15.48L28.33 15.48Q27.75 15.95 26.84 16.14L26.84 16.14L26.84 16.14Q25.92 16.34 24.61 16.34L24.61 16.34L24.61 16.34Q23.30 16.34 22.38 16.14L22.38 16.14L22.38 16.14Q21.46 15.95 20.89 15.48L20.89 15.48L20.89 15.48Q20.32 15.00 20.06 14.21L20.06 14.21L20.06 14.21Q19.80 13.41 19.80 12.20ZM21.11 12.20L21.11 12.20L21.11 12.20Q21.11 12.85 21.16 13.34L21.16 13.34L21.16 13.34Q21.21 13.82 21.34 14.17L21.34 14.17L21.34 14.17Q21.47 14.52 21.71 14.74L21.71 14.74L21.71 14.74Q21.95 14.96 22.34 15.09L22.34 15.09L22.34 15.09Q22.73 15.22 23.29 15.26L23.29 15.26L23.29 15.26Q23.84 15.31 24.61 15.31L24.61 15.31L24.61 15.31Q25.27 15.31 25.78 15.28L25.78 15.28L25.78 15.28Q26.30 15.25 26.68 15.14L26.68 15.14L26.68 15.14Q27.07 15.03 27.34 14.83L27.34 14.83L27.34 14.83Q27.62 14.63 27.78 14.28L27.78 14.28L27.78 14.28Q27.95 13.93 28.03 13.42L28.03 13.42L28.03 13.42Q28.11 12.91 28.11 12.20L28.11 12.20L28.11 12.20Q28.11 11.49 28.03 11.00L28.03 11.00L28.03 11.00Q27.95 10.50 27.78 10.17L27.78 10.17L27.78 10.17Q27.62 9.83 27.34 9.64L27.34 9.64L27.34 9.64Q27.07 9.44 26.68 9.34L26.68 9.34L26.68 9.34Q26.30 9.24 25.78 9.21L25.78 9.21L25.78 9.21Q25.27 9.19 24.61 9.19L24.61 9.19L24.61 9.19Q23.95 9.19 23.44 9.21L23.44 9.21L23.44 9.21Q22.92 9.24 22.53 9.34L22.53 9.34L22.53 9.34Q22.15 9.44 21.88 9.64L21.88 9.64L21.88 9.64Q21.60 9.83 21.43 10.17L21.43 10.17L21.43 10.17Q21.27 10.50 21.19 11.00L21.19 11.00L21.19 11.00Q21.11 11.49 21.11 12.20ZM30.08 8.31L34.23 16.19L35.98 16.19L40.14 8.31L38.61 8.31L35.11 15.31L31.61 8.31L30.08 8.31ZM41.89 16.19L41.89 8.31L43.20 8.31L43.20 16.19L41.89 16.19ZM43.20 5.69L43.20 7L41.89 7L41.89 5.69L43.20 5.69ZM49.98 16.34L49.98 16.34L49.98 16.34Q48.67 16.34 47.76 16.16L47.76 16.16L47.76 16.16Q46.84 15.98 46.27 15.53L46.27 15.53L46.27 15.53Q45.69 15.09 45.43 14.34L45.43 14.34L45.43 14.34Q45.17 13.60 45.17 12.47L45.17 12.47L45.17 12.47Q45.17 11.18 45.43 10.33L45.43 10.33L45.43 10.33Q45.69 9.49 46.27 8.99L46.27 8.99L46.27 8.99Q46.84 8.49 47.76 8.29L47.76 8.29L47.76 8.29Q48.67 8.09 49.98 8.09L49.98 8.09L49.98 8.09Q50.92 8.09 51.61 8.23L51.61 8.23L51.61 8.23Q52.29 8.37 52.78 8.63L52.78 8.63L52.78 8.63Q53.27 8.89 53.58 9.26L53.58 9.26L53.58 9.26Q53.88 9.63 54.06 10.03L54.06 10.03L54.06 10.03Q54.23 10.44 54.29 10.99L54.29 10.99L54.29 10.99Q54.36 11.53 54.36 12.14L54.36 12.14L54.25 12.58L46.48 12.58L46.48 12.58Q46.48 13.48 46.66 14.06L46.66 14.06L46.66 14.06Q46.84 14.64 47.25 14.90L47.25 14.90L47.25 14.90Q47.66 15.17 48.33 15.24L48.33 15.24L48.33 15.24Q49 15.31 49.98 15.31L49.98 15.31L49.98 15.31Q50.89 15.31 51.48 15.26L51.48 15.26L51.48 15.26Q52.07 15.21 52.42 15.07L52.42 15.07L52.42 15.07Q52.77 14.92 52.91 14.67L52.91 14.67L52.91 14.67Q53.05 14.41 53.05 14L53.05 14L54.36 14L54.36 14Q54.36 14.64 54.14 15.08L54.14 15.08L54.14 15.08Q53.92 15.53 53.40 15.81L53.40 15.81L53.40 15.81Q52.89 16.08 52.05 16.21L52.05 16.21L52.05 16.21Q51.21 16.34 49.98 16.34ZM49.98 9.19L49.98 9.19L49.98 9.19Q49.33 9.19 48.81 9.21L48.81 9.21L48.81 9.21Q48.30 9.24 47.91 9.33L47.91 9.33L47.91 9.33Q47.52 9.43 47.25 9.60L47.25 9.60L47.25 9.60Q46.98 9.78 46.81 10.01L46.81 10.01L46.81 10.01Q46.64 10.25 46.56 10.67L46.56 10.67L46.56 10.67Q46.48 11.10 46.48 11.70L46.48 11.70L53.05 11.70L53.05 11.70Q53.05 10.90 52.88 10.45L52.88 10.45L52.88 10.45Q52.71 9.99 52.34 9.70L52.34 9.70L52.34 9.70Q51.97 9.41 51.39 9.30L51.39 9.30L51.39 9.30Q50.80 9.19 49.98 9.19ZM67.48 16.19L59.61 16.19L59.61 5.69L68.37 5.69L68.37 5.69Q69.35 5.69 69.95 5.85L69.95 5.85L69.95 5.85Q70.55 6.01 70.88 6.32L70.88 6.32L70.88 6.32Q71.20 6.63 71.31 7.10L71.31 7.10L71.31 7.10Q71.42 7.56 71.42 8.16L71.42 8.16L71.42 8.16Q71.42 8.60 71.35 8.93L71.35 8.93L71.35 8.93Q71.27 9.27 71.15 9.52L71.15 9.52L71.15 9.52Q71.03 9.76 70.87 9.93L70.87 9.93L70.87 9.93Q70.71 10.10 70.55 10.21L70.55 10.21L70.55 10.21Q70.16 10.47 69.67 10.50L69.67 10.50L69.67 10.50Q70.29 10.53 70.77 10.80L70.77 10.80L70.77 10.80Q70.97 10.92 71.17 11.09L71.17 11.09L71.17 11.09Q71.36 11.27 71.51 11.52L71.51 11.52L71.51 11.52Q71.67 11.78 71.76 12.12L71.76 12.12L71.76 12.12Q71.86 12.47 71.86 12.92L71.86 12.92L71.86 12.92Q71.86 13.47 71.81 13.92L71.81 13.92L71.81 13.92Q71.76 14.38 71.60 14.74L71.60 14.74L71.60 14.74Q71.44 15.10 71.15 15.37L71.15 15.37L71.15 15.37Q70.85 15.65 70.37 15.83L70.37 15.83L70.37 15.83Q69.88 16.01 69.17 16.10L69.17 16.10L69.17 16.10Q68.46 16.19 67.48 16.19L67.48 16.19ZM60.92 15.09L67.04 15.09L67.04 15.09Q67.81 15.09 68.37 15.07L68.37 15.07L68.37 15.07Q68.93 15.05 69.32 14.97L69.32 14.97L69.32 14.97Q69.71 14.89 69.95 14.74L69.95 14.74L69.95 14.74Q70.18 14.59 70.32 14.35L70.32 14.35L70.32 14.35Q70.45 14.11 70.50 13.76L70.50 13.76L70.50 13.76Q70.55 13.41 70.55 12.92L70.55 12.92L70.55 12.92Q70.55 12.54 70.50 12.25L70.50 12.25L70.50 12.25Q70.45 11.97 70.32 11.77L70.32 11.77L70.32 11.77Q70.18 11.58 69.95 11.46L69.95 11.46L69.95 11.46Q69.71 11.34 69.32 11.27L69.32 11.27L69.32 11.27Q68.93 11.20 68.37 11.18L68.37 11.18L68.37 11.18Q67.81 11.16 67.04 11.16L67.04 11.16L60.92 11.16L60.92 15.09ZM60.92 10.06L67.04 10.06L67.04 10.06Q67.71 10.06 68.20 10.04L68.20 10.04L68.20 10.04Q68.68 10.01 69.02 9.93L69.02 9.93L69.02 9.93Q69.36 9.86 69.58 9.72L69.58 9.72L69.58 9.72Q69.79 9.59 69.91 9.38L69.91 9.38L69.91 9.38Q70.03 9.17 70.07 8.87L70.07 8.87L70.07 8.87Q70.11 8.57 70.11 8.16L70.11 8.16L70.11 8.16Q70.11 7.72 70.01 7.45L70.01 7.45L70.01 7.45Q69.92 7.18 69.67 7.03L69.67 7.03L69.67 7.03Q69.43 6.88 69.01 6.83L69.01 6.83L69.01 6.83Q68.58 6.78 67.93 6.78L67.93 6.78L60.92 6.78L60.92 10.06ZM81.48 10.88L80.39 10.88L80.39 10.88Q80.39 10.38 80.32 10.06L80.32 10.06L80.32 10.06Q80.25 9.73 79.98 9.54L79.98 9.54L79.98 9.54Q79.71 9.34 79.19 9.27L79.19 9.27L79.19 9.27Q78.67 9.19 77.77 9.19L77.77 9.19L77.77 9.19Q76.88 9.19 76.33 9.34L76.33 9.34L76.33 9.34Q75.78 9.50 75.46 9.78L75.46 9.78L75.46 9.78Q75.15 10.06 75.03 10.45L75.03 10.45L75.03 10.45Q74.92 10.83 74.92 11.31L74.92 11.31L74.92 16.19L73.61 16.19L73.61 8.31L74.92 8.31L74.92 9.56L74.92 9.56Q74.99 9.35 75.17 9.10L75.17 9.10L75.17 9.10Q75.36 8.84 75.74 8.62L75.74 8.62L75.74 8.62Q76.11 8.39 76.71 8.24L76.71 8.24L76.71 8.24Q77.31 8.09 78.20 8.09L78.20 8.09L78.20 8.09Q79.23 8.09 79.87 8.27L79.87 8.27L79.87 8.27Q80.51 8.46 80.87 8.81L80.87 8.81L80.87 8.81Q81.23 9.16 81.36 9.68L81.36 9.68L81.36 9.68Q81.48 10.20 81.48 10.88L81.48 10.88ZM82.14 12.20L82.14 12.20L82.14 12.20Q82.14 10.99 82.40 10.19L82.40 10.19L82.40 10.19Q82.66 9.40 83.23 8.93L83.23 8.93L83.23 8.93Q83.81 8.47 84.72 8.28L84.72 8.28L84.72 8.28Q85.64 8.09 86.95 8.09L86.95 8.09L86.95 8.09Q88.27 8.09 89.18 8.28L89.18 8.28L89.18 8.28Q90.10 8.47 90.67 8.93L90.67 8.93L90.67 8.93Q91.25 9.40 91.51 10.19L91.51 10.19L91.51 10.19Q91.77 10.99 91.77 12.20L91.77 12.20L91.77 12.20Q91.77 13.41 91.51 14.21L91.51 14.21L91.51 14.21Q91.25 15.00 90.67 15.48L90.67 15.48L90.67 15.48Q90.10 15.95 89.18 16.14L89.18 16.14L89.18 16.14Q88.27 16.34 86.95 16.34L86.95 16.34L86.95 16.34Q85.64 16.34 84.72 16.14L84.72 16.14L84.72 16.14Q83.81 15.95 83.23 15.48L83.23 15.48L83.23 15.48Q82.66 15.00 82.40 14.21L82.40 14.21L82.40 14.21Q82.14 13.41 82.14 12.20ZM83.45 12.20L83.45 12.20L83.45 12.20Q83.45 12.85 83.50 13.34L83.50 13.34L83.50 13.34Q83.55 13.82 83.68 14.17L83.68 14.17L83.68 14.17Q83.82 14.52 84.05 14.74L84.05 14.74L84.05 14.74Q84.29 14.96 84.68 15.09L84.68 15.09L84.68 15.09Q85.07 15.22 85.63 15.26L85.63 15.26L85.63 15.26Q86.19 15.31 86.95 15.31L86.95 15.31L86.95 15.31Q87.61 15.31 88.13 15.28L88.13 15.28L88.13 15.28Q88.64 15.25 89.03 15.14L89.03 15.14L89.03 15.14Q89.41 15.03 89.69 14.83L89.69 14.83L89.69 14.83Q89.96 14.63 90.13 14.28L90.13 14.28L90.13 14.28Q90.30 13.93 90.37 13.42L90.37 13.42L90.37 13.42Q90.45 12.91 90.45 12.20L90.45 12.20L90.45 12.20Q90.45 11.49 90.37 11.00L90.37 11.00L90.37 11.00Q90.30 10.50 90.13 10.17L90.13 10.17L90.13 10.17Q89.96 9.83 89.69 9.64L89.69 9.64L89.69 9.64Q89.41 9.44 89.03 9.34L89.03 9.34L89.03 9.34Q88.64 9.24 88.13 9.21L88.13 9.21L88.13 9.21Q87.61 9.19 86.95 9.19L86.95 9.19L86.95 9.19Q86.30 9.19 85.78 9.21L85.78 9.21L85.78 9.21Q85.26 9.24 84.88 9.34L84.88 9.34L84.88 9.34Q84.49 9.44 84.22 9.64L84.22 9.64L84.22 9.64Q83.95 9.83 83.78 10.17L83.78 10.17L83.78 10.17Q83.61 10.50 83.53 11.00L83.53 11.00L83.53 11.00Q83.45 11.49 83.45 12.20ZM103.80 16.19L106.86 8.31L105.33 8.31L102.89 15.20L100.30 8.31L98.98 8.31L96.36 15.20L93.95 8.31L92.42 8.31L95.48 16.19L97.23 16.19L99.64 9.73L102.05 16.19L103.80 16.19ZM112.77 12.60L112.77 12.60L112.77 12.60Q113.53 12.60 114.07 12.62L114.07 12.62L114.07 12.62Q114.61 12.65 114.98 12.70L114.98 12.70L114.98 12.70Q115.34 12.76 115.55 12.85L115.55 12.85L115.55 12.85Q115.77 12.94 115.88 13.11L115.88 13.11L115.88 13.11Q115.99 13.29 116.02 13.46L116.02 13.46L116.02 13.46Q116.05 13.64 116.05 13.86L116.05 13.86L116.05 13.86Q116.05 14.11 116.02 14.31L116.02 14.31L116.02 14.31Q115.99 14.51 115.87 14.68L115.87 14.68L115.87 14.68Q115.75 14.84 115.53 14.96L115.53 14.96L115.53 14.96Q115.30 15.07 114.91 15.16L114.91 15.16L114.91 15.16Q114.52 15.24 113.94 15.27L113.94 15.27L113.94 15.27Q113.37 15.31 112.55 15.31L112.55 15.31L112.55 15.31Q111.64 15.31 111.05 15.26L111.05 15.26L111.05 15.26Q110.46 15.21 110.11 15.07L110.11 15.07L110.11 15.07Q109.76 14.92 109.62 14.67L109.62 14.67L109.62 14.67Q109.48 14.41 109.48 14L109.48 14L108.17 14L108.17 14Q108.17 14.62 108.39 15.05L108.39 15.05L108.39 15.05Q108.62 15.48 109.13 15.75L109.13 15.75L109.13 15.75Q109.64 16.02 110.48 16.15L110.48 16.15L110.48 16.15Q111.32 16.27 112.55 16.27L112.55 16.27L112.55 16.27Q113.53 16.27 114.27 16.21L114.27 16.21L114.27 16.21Q115.01 16.15 115.55 16.03L115.55 16.03L115.55 16.03Q116.08 15.91 116.43 15.72L116.43 15.72L116.43 15.72Q116.79 15.52 116.99 15.25L116.99 15.25L116.99 15.25Q117.20 14.98 117.28 14.63L117.28 14.63L117.28 14.63Q117.36 14.28 117.36 13.84L117.36 13.84L117.36 13.84Q117.36 13.39 117.28 13.05L117.28 13.05L117.28 13.05Q117.20 12.71 116.99 12.47L116.99 12.47L116.99 12.47Q116.79 12.22 116.46 12.00L116.46 12.00L116.46 12.00Q116.12 11.79 115.61 11.69L115.61 11.69L115.61 11.69Q115.10 11.59 114.40 11.55L114.40 11.55L114.40 11.55Q113.70 11.50 112.77 11.50L112.77 11.50L112.77 11.50Q112 11.50 111.46 11.50L111.46 11.50L111.46 11.50Q110.92 11.50 110.55 11.46L110.55 11.46L110.55 11.46Q110.19 11.42 109.98 11.35L109.98 11.35L109.98 11.35Q109.76 11.27 109.66 11.13L109.66 11.13L109.66 11.13Q109.55 10.99 109.52 10.76L109.52 10.76L109.52 10.76Q109.48 10.54 109.48 10.31L109.48 10.31L109.48 10.31Q109.48 9.91 109.66 9.69L109.66 9.69L109.66 9.69Q109.84 9.46 110.25 9.35L110.25 9.35L110.25 9.35Q110.66 9.24 111.33 9.21L111.33 9.21L111.33 9.21Q112 9.19 112.98 9.19L112.98 9.19L112.98 9.19Q113.89 9.19 114.48 9.24L114.48 9.24L114.48 9.24Q115.07 9.29 115.42 9.42L115.42 9.42L115.42 9.42Q115.77 9.56 115.91 9.79L115.91 9.79L115.91 9.79Q116.05 10.02 116.05 10.39L116.05 10.39L117.36 10.39L117.36 10.39Q117.36 9.80 117.16 9.37L117.16 9.37L117.16 9.37Q116.96 8.93 116.47 8.65L116.47 8.65L116.47 8.65Q115.97 8.37 115.13 8.23L115.13 8.23L115.13 8.23Q114.28 8.09 112.98 8.09L112.98 8.09L112.98 8.09Q111.67 8.09 110.76 8.21L110.76 8.21L110.76 8.21Q109.84 8.33 109.27 8.59L109.27 8.59L109.27 8.59Q108.69 8.85 108.43 9.27L108.43 9.27L108.43 9.27Q108.17 9.69 108.17 10.31L108.17 10.31L108.17 10.31Q108.17 10.76 108.25 11.15L108.25 11.15L108.25 11.15Q108.34 11.53 108.53 11.80L108.53 11.80L108.53 11.80Q108.73 12.06 109.07 12.22L109.07 12.22L109.07 12.22Q109.41 12.37 109.92 12.46L109.92 12.46L109.92 12.46Q110.43 12.54 111.13 12.57L111.13 12.57L111.13 12.57Q111.84 12.60 112.77 12.60ZM123.70 16.34L123.70 16.34L123.70 16.34Q122.39 16.34 121.47 16.16L121.47 16.16L121.47 16.16Q120.56 15.98 119.98 15.53L119.98 15.53L119.98 15.53Q119.41 15.09 119.15 14.34L119.15 14.34L119.15 14.34Q118.89 13.60 118.89 12.47L118.89 12.47L118.89 12.47Q118.89 11.18 119.15 10.33L119.15 10.33L119.15 10.33Q119.41 9.49 119.98 8.99L119.98 8.99L119.98 8.99Q120.56 8.49 121.47 8.29L121.47 8.29L121.47 8.29Q122.39 8.09 123.70 8.09L123.70 8.09L123.70 8.09Q124.64 8.09 125.33 8.23L125.33 8.23L125.33 8.23Q126.01 8.37 126.50 8.63L126.50 8.63L126.50 8.63Q126.99 8.89 127.30 9.26L127.30 9.26L127.30 9.26Q127.60 9.63 127.77 10.03L127.77 10.03L127.77 10.03Q127.95 10.44 128.01 10.99L128.01 10.99L128.01 10.99Q128.08 11.53 128.08 12.14L128.08 12.14L127.97 12.58L120.20 12.58L120.20 12.58Q120.20 13.48 120.38 14.06L120.38 14.06L120.38 14.06Q120.56 14.64 120.97 14.90L120.97 14.90L120.97 14.90Q121.38 15.17 122.05 15.24L122.05 15.24L122.05 15.24Q122.72 15.31 123.70 15.31L123.70 15.31L123.70 15.31Q124.61 15.31 125.20 15.26L125.20 15.26L125.20 15.26Q125.79 15.21 126.14 15.07L126.14 15.07L126.14 15.07Q126.49 14.92 126.63 14.67L126.63 14.67L126.63 14.67Q126.77 14.41 126.77 14L126.77 14L128.08 14L128.08 14Q128.08 14.64 127.86 15.08L127.86 15.08L127.86 15.08Q127.63 15.53 127.12 15.81L127.12 15.81L127.12 15.81Q126.61 16.08 125.77 16.21L125.77 16.21L125.77 16.21Q124.93 16.34 123.70 16.34ZM123.70 9.19L123.70 9.19L123.70 9.19Q123.05 9.19 122.53 9.21L122.53 9.21L122.53 9.21Q122.01 9.24 121.63 9.33L121.63 9.33L121.63 9.33Q121.24 9.43 120.97 9.60L120.97 9.60L120.97 9.60Q120.70 9.78 120.53 10.01L120.53 10.01L120.53 10.01Q120.36 10.25 120.28 10.67L120.28 10.67L120.28 10.67Q120.20 11.10 120.20 11.70L120.20 11.70L126.77 11.70L126.77 11.70Q126.77 10.90 126.59 10.45L126.59 10.45L126.59 10.45Q126.42 9.99 126.05 9.70L126.05 9.70L126.05 9.70Q125.69 9.41 125.10 9.30L125.10 9.30L125.10 9.30Q124.52 9.19 123.70 9.19ZM137.70 10.88L136.61 10.88L136.61 10.88Q136.61 10.38 136.54 10.06L136.54 10.06L136.54 10.06Q136.47 9.73 136.20 9.54L136.20 9.54L136.20 9.54Q135.93 9.34 135.41 9.27L135.41 9.27L135.41 9.27Q134.89 9.19 133.98 9.19L133.98 9.19L133.98 9.19Q133.10 9.19 132.55 9.34L132.55 9.34L132.55 9.34Q132.00 9.50 131.68 9.78L131.68 9.78L131.68 9.78Q131.37 10.06 131.25 10.45L131.25 10.45L131.25 10.45Q131.14 10.83 131.14 11.31L131.14 11.31L131.14 16.19L129.83 16.19L129.83 8.31L131.14 8.31L131.14 9.56L131.14 9.56Q131.21 9.35 131.39 9.10L131.39 9.10L131.39 9.10Q131.58 8.84 131.95 8.62L131.95 8.62L131.95 8.62Q132.33 8.39 132.93 8.24L132.93 8.24L132.93 8.24Q133.53 8.09 134.42 8.09L134.42 8.09L134.42 8.09Q135.45 8.09 136.09 8.27L136.09 8.27L136.09 8.27Q136.73 8.46 137.09 8.81L137.09 8.81L137.09 8.81Q137.45 9.16 137.58 9.68L137.58 9.68L137.58 9.68Q137.70 10.20 137.70 10.88L137.70 10.88Z"></path></g><defs data-v-fde0c5aa=""><!----></defs><g data-v-fde0c5aa="" id="bee01037-1e76-48b4-9eed-f097f4156619" stroke="none" fill="#ffffff" transform="matrix(0.4673589994856675,0,0,0.4673589994856675,126.86583136980015,107.71188887249505)"><path d="M34.571 16.321h5.716v5.716h-5.716zM34.571 28.368h5.716v5.716h-5.716zM34.571 40.416h5.716v5.716h-5.716zM34.571 52.464h5.716v5.716h-5.716zM80.349 16.321h5.716v5.716h-5.716zM80.349 28.368h5.716v5.716h-5.716zM80.349 40.416h5.716v5.716h-5.716zM80.349 52.464h5.716v5.716h-5.716zM52.324 50.356a1.12 1.12 0 0 1-1.118-1.117V26.271a1.117 1.117 0 0 1 1.702-.951l18.704 11.483c.332.203.532.563.532.951 0 .389-.201.749-.532.951L52.909 50.19a1.109 1.109 0 0 1-.585.166zm1.118-22.088v18.974l15.45-9.488-15.45-9.486z"></path><path d="M81.978 8.301c4.025 0 7.3 3.275 7.3 7.3V59.3c0 4.025-3.275 7.3-7.3 7.3H38.279c-4.025 0-7.3-3.275-7.3-7.3V15.601c0-4.025 3.275-7.3 7.3-7.3h43.699m0-2.235H38.279a9.535 9.535 0 0 0-9.535 9.535V59.3a9.535 9.535 0 0 0 9.535 9.535h43.699a9.535 9.535 0 0 0 9.535-9.535V15.601c-.001-5.266-4.27-9.535-9.535-9.535z"></path><path d="M74.63 71.069h-2.299l.225.924a7.487 7.487 0 0 1-.884 5.706 7.503 7.503 0 0 1-4.661 3.409l-38.573 9.386a7.502 7.502 0 0 1-5.706-.886 7.5 7.5 0 0 1-3.409-4.661L9.94 46.377a7.492 7.492 0 0 1 .886-5.706 7.5 7.5 0 0 1 4.661-3.409L26.51 34.58v-2.3l-11.551 2.809a9.724 9.724 0 0 0-6.043 4.419 9.72 9.72 0 0 0-1.148 7.396l9.386 38.57a9.707 9.707 0 0 0 4.417 6.043 9.725 9.725 0 0 0 5.065 1.429c.775 0 1.558-.094 2.331-.284l38.573-9.386a9.693 9.693 0 0 0 6.04-4.417 9.708 9.708 0 0 0 1.148-7.396l-.098-.394z"></path></g><!----></svg>